<svg id="Layer_1" data-name="Layer 1" xmlns="http://www.w3.org/2000/svg" viewBox="0 0 250 77.65"><defs><style>.cls-1{fill:#0ac500;}.cls-2{fill:#006eff;}</style></defs><path d="M120.7,2.9a.49.49,0,0,0-.45.29L104,39h6.29l3.44-8.26h14L131.16,39h6.29L121.16,3.19A.51.51,0,0,0,120.7,2.9Zm4.86,22.71h-9.71L120.7,14Z"/><path d="M152.46,2.9a.51.51,0,0,0-.46.29L135.71,39H142l3.44-8.26h14L162.91,39h6.29L152.91,3.19A.5.5,0,0,0,152.46,2.9Zm4.85,22.71H147.6L152.46,14Z"/><path d="M185.77,4.65h-13.2V39h5.72V26.47h7.48c3.78,0,6.63-1,8.73-2.95,1.89-1.84,2.91-5.47,2.91-8s-.87-5.77-2.52-7.56C192.77,5.72,189.87,4.65,185.77,4.65Zm5.92,10.67c0,2.1-.48,3.7-1.36,4.54a6.23,6.23,0,0,1-4.56,1.46h-7.48V9.81h7.48a6,6,0,0,1,4.69,1.59A6.77,6.77,0,0,1,191.69,15.32Z"/><path class="cls-1" d="M74.51,26.32a6.16,6.16,0,1,0,6.16,6.16A6.18,6.18,0,0,0,74.51,26.32Z"/><path class="cls-1" d="M59.36,17.31a5,5,0,1,0,5,5A5,5,0,0,0,59.36,17.31Z"/><path class="cls-1" d="M59.36,37.63a5,5,0,1,0,5,5A5,5,0,0,0,59.36,37.63Z"/><circle class="cls-1" cx="46.43" cy="14.08" r="4.1"/><path class="cls-1" d="M35.24,4.37A3.37,3.37,0,1,0,38.6,7.74,3.37,3.37,0,0,0,35.24,4.37Z"/><circle class="cls-1" cx="46.43" cy="50.89" r="4.1"/><path class="cls-1" d="M35.24,53.87a3.36,3.36,0,1,0,3.36,3.36A3.37,3.37,0,0,0,35.24,53.87Z"/><path class="cls-2" d="M44.91,26.32a6.16,6.16,0,1,0,6.16,6.16A6.17,6.17,0,0,0,44.91,26.32Z"/><circle class="cls-2" cx="72.99" cy="14.08" r="4.1"/><path class="cls-2" d="M84.18,11.1a3.37,3.37,0,1,0-3.37-3.36A3.37,3.37,0,0,0,84.18,11.1Z"/><circle class="cls-2" cx="72.99" cy="50.89" r="4.1"/><path class="cls-2" d="M84.18,53.87a3.36,3.36,0,1,0,3.36,3.36A3.37,3.37,0,0,0,84.18,53.87Z"/><path d="M114.3,60.66h-.82l-1.21-2.87h-5.5l-1.2,2.87h-.81l4.73-11.06h.06Zm-7.22-3.55H112l-2.45-5.79Z"/><path d="M121.47,54.7l-.52.4a2.72,2.72,0,0,0-2.35-1.28c-1.85,0-2.84,1.34-2.84,3.16s1,3.16,2.87,3.16A2.81,2.81,0,0,0,121,58.86l.52.41a3.37,3.37,0,0,1-2.91,1.54A3.49,3.49,0,0,1,115,57c0-2.22,1.3-3.81,3.56-3.81A3.32,3.32,0,0,1,121.47,54.7Z"/><path d="M128.85,54.7l-.52.4A2.72,2.72,0,0,0,126,53.82c-1.85,0-2.84,1.34-2.84,3.16s1,3.16,2.87,3.16a2.81,2.81,0,0,0,2.39-1.28l.52.41A3.37,3.37,0,0,1,126,60.81a3.5,3.5,0,0,1-3.6-3.83c0-2.22,1.31-3.81,3.57-3.81A3.33,3.33,0,0,1,128.85,54.7Z"/><path d="M133.34,53.89h-.07a2.45,2.45,0,0,0-2.16,1.37v5.4h-.71V53.31h.66l0,1.08a2.59,2.59,0,0,1,2.25-1.22Z"/><path d="M140.85,56.91v.34h-6a2.74,2.74,0,0,0,2.92,2.91A2.89,2.89,0,0,0,140.17,59l.52.4a3.42,3.42,0,0,1-2.94,1.42A3.5,3.5,0,0,1,134.11,57c0-2.21,1.39-3.82,3.43-3.82S140.85,54.79,140.85,56.91Zm-6-.3h5.31a2.58,2.58,0,0,0-2.6-2.79A2.71,2.71,0,0,0,134.83,56.61Z"/><path d="M148.83,60.66h-.68V59.6a3.23,3.23,0,0,1-2.65,1.21A3.51,3.51,0,0,1,142.06,57c0-2.23,1.42-3.82,3.43-3.82a3.19,3.19,0,0,1,2.62,1.15V49.43h.72Zm-6-3.67a2.87,2.87,0,0,0,5.32,1.75v-3.5A2.87,2.87,0,0,0,142.79,57Z"/><path d="M152.18,50.89a.61.61,0,1,1-.61-.61A.61.61,0,0,1,152.18,50.89Zm-.25,9.77h-.71V53.31h.71Z"/><path d="M155.56,53.31h2.53V54h-2.53v4.53a1.47,1.47,0,0,0,1.51,1.65,2.37,2.37,0,0,0,1.2-.28l.25.59a2.63,2.63,0,0,1-1.46.36,2.08,2.08,0,0,1-2.21-2.32V54H153.3v-.65h1.55V50.77h.71Z"/><path d="M165.9,56.91v.34h-6a2.74,2.74,0,0,0,2.91,2.91A2.89,2.89,0,0,0,165.22,59l.51.4a3.41,3.41,0,0,1-2.94,1.42A3.5,3.5,0,0,1,159.16,57c0-2.21,1.39-3.82,3.43-3.82S165.9,54.79,165.9,56.91Zm-6-.3h5.31a2.59,2.59,0,0,0-2.6-2.79A2.71,2.71,0,0,0,159.88,56.61Z"/><path d="M173.88,60.66h-.68V59.6a3.23,3.23,0,0,1-2.65,1.21A3.51,3.51,0,0,1,167.11,57c0-2.23,1.42-3.82,3.43-3.82a3.2,3.2,0,0,1,2.62,1.15V49.43h.72Zm-6-3.67a2.88,2.88,0,0,0,5.33,1.75v-3.5A2.87,2.87,0,0,0,167.83,57Z"/><path d="M114.3,75.08h-.82l-1.21-2.87h-5.5l-1.2,2.87h-.81L109.49,64h.06Zm-7.22-3.55H112l-2.45-5.8Z"/><path d="M124,65.54l-.49.56a4.5,4.5,0,0,0-3.28-1.37,4.93,4.93,0,0,0,0,9.83,4.51,4.51,0,0,0,3.39-1.48l.48.58a5.1,5.1,0,0,1-3.87,1.61,5.63,5.63,0,0,1,0-11.25A5.16,5.16,0,0,1,124,65.54Z"/><path d="M133.64,75.08h-.76V69.89H126.5v5.19h-.76V64.21h.76v5h6.38v-5h.76Z"/><path d="M146.9,67.49c0,2.13-1.51,3.27-3.74,3.27h-2.44v4.32H140V64.21h3.2C145.38,64.21,146.9,65.35,146.9,67.49Zm-6.18-2.58v5.16h2.39c1.85,0,3-.89,3-2.58s-1.18-2.58-3-2.58Z"/><path d="M151.38,68.31h-.08a2.42,2.42,0,0,0-2.15,1.37v5.4h-.71V67.73h.66l0,1.08a2.6,2.6,0,0,1,2.25-1.23Z"/><path d="M159.48,71.41a3.67,3.67,0,1,1-3.67-3.83A3.62,3.62,0,0,1,159.48,71.41Zm-6.61,0a3,3,0,1,0,2.94-3.16A2.94,2.94,0,0,0,152.87,71.41Z"/><path d="M165.34,64.42,165,65a1.46,1.46,0,0,0-1.14-.45,1.5,1.5,0,0,0-1.43,1.68v1.54h2.2v.65h-2.2v6.7h-.71v-6.7h-1.36v-.65h1.36V66.22a2.15,2.15,0,0,1,2.13-2.38A2.12,2.12,0,0,1,165.34,64.42Z"/><path d="M172.14,71.32v.34h-6A2.73,2.73,0,0,0,169,74.57a2.89,2.89,0,0,0,2.43-1.16l.51.4A3.43,3.43,0,0,1,169,75.22a3.49,3.49,0,0,1-3.63-3.81c0-2.22,1.38-3.83,3.43-3.83S172.14,69.21,172.14,71.32Zm-6-.29h5.31a2.6,2.6,0,0,0-2.6-2.8A2.71,2.71,0,0,0,166.12,71Z"/><path d="M178.33,68.32l-.32.58a3.53,3.53,0,0,0-2.07-.67c-1,0-1.78.42-1.78,1.35s.56,1.09,1.92,1.4c1.72.4,2.5,1,2.5,2.09,0,1.28-1.06,2.15-2.66,2.15a4.11,4.11,0,0,1-2.67-.87l.37-.59a3.59,3.59,0,0,0,2.32.81c1.11,0,1.93-.5,1.93-1.46s-.63-1.17-2-1.46c-1.72-.4-2.44-.9-2.44-2,0-1.31,1.05-2,2.5-2A4.24,4.24,0,0,1,178.33,68.32Z"/><path d="M184.87,68.32l-.33.58a3.48,3.48,0,0,0-2.07-.67c-1,0-1.77.42-1.77,1.35s.56,1.09,1.92,1.4c1.71.4,2.5,1,2.5,2.09,0,1.28-1.07,2.15-2.66,2.15a4.14,4.14,0,0,1-2.68-.87l.37-.59a3.63,3.63,0,0,0,2.32.81c1.11,0,1.94-.5,1.94-1.46s-.64-1.17-2-1.46c-1.71-.4-2.44-.9-2.44-2,0-1.31,1.05-2,2.5-2A4.27,4.27,0,0,1,184.87,68.32Z"/><path d="M187.84,65.31a.59.59,0,0,1-.61.6.58.58,0,0,1-.6-.6.59.59,0,0,1,.6-.61A.6.6,0,0,1,187.84,65.31Zm-.25,9.77h-.71V67.73h.71Z"/><path d="M196.65,71.41A3.67,3.67,0,1,1,193,67.58,3.62,3.62,0,0,1,196.65,71.41Zm-6.61,0A3,3,0,1,0,193,68.25,2.94,2.94,0,0,0,190,71.41Z"/><path d="M204.44,70.63v4.45h-.71V70.67a2.18,2.18,0,0,0-2.2-2.39,3,3,0,0,0-2.44,1.39v5.41h-.71V67.73h.67l0,1.06a3.31,3.31,0,0,1,2.57-1.21A2.73,2.73,0,0,1,204.44,70.63Z"/><path d="M212,68.76l0-1h.68v7.35h-.68L212,74a3.08,3.08,0,0,1-2.58,1.21c-2,0-3.38-1.61-3.38-3.81s1.38-3.83,3.38-3.83A3.09,3.09,0,0,1,212,68.76Zm-5.23,2.65c0,1.85,1.12,3.15,2.73,3.15A2.78,2.78,0,0,0,212,73.15v-3.5a2.8,2.8,0,0,0-2.47-1.4C207.93,68.25,206.81,69.56,206.81,71.41Z"/><path d="M215.84,75.08h-.72V63.84h.72Z"/><path d="M203.84,6.47a1.77,1.77,0,1,1-3.54,0,1.77,1.77,0,1,1,3.54,0Zm-.3,0a1.47,1.47,0,1,0-2.94,0,1.47,1.47,0,1,0,2.94,0Zm-1.14.22.51.82h-.36l-.47-.76h-.38v.76h-.31V5.44h.68a.66.66,0,0,1,.75.65A.61.61,0,0,1,202.4,6.69Zm-.7-.23h.35c.28,0,.46-.12.46-.37s-.18-.35-.46-.35h-.35Z"/></svg>