<?xml version="1.0" encoding="utf-8"?>
<svg version="1.1" id="gregsenne_logo_svg" xmlns="http://www.w3.org/2000/svg" xmlns:xlink="http://www.w3.org/1999/xlink" x="0px" y="0px"
	 viewBox="0 0 864 135.58" style="enable-background:new 0 0 864 135.58;" xml:space="preserve">
<style type="text/css">
	.st0{fill:#808285;}
	.st1{fill:#58595B;}
</style>
<g>
	<path class="st0" d="M75.1,7.3h17.6v81.98c0,12.08-4.16,22.34-12.47,30.8c-8.32,8.45-18.37,12.68-30.17,12.68
		c-8.97,0-17.22-2.43-24.74-7.3c-7.52-4.87-13.04-12.27-16.56-22.2h18.63c5.59,9.25,13.35,13.87,23.29,13.87
		c6.76,0,12.53-2.43,17.29-7.3s7.14-10.71,7.14-17.55V76.14c-8.7,12.63-19.67,18.94-32.92,18.94c-10.9,0-20.41-4.5-28.52-13.51
		C5.56,72.57,1.5,61.93,1.5,49.64c0-12.28,3.95-22.81,11.85-31.57c7.9-8.76,17.3-13.15,28.21-13.15c14.08,0,25.26,6.8,33.54,20.39
		V7.3z M77.59,49.85c0-8-2.78-14.7-8.33-20.08c-5.56-5.38-12.44-8.07-20.65-8.07c-7.52,0-14.15,2.79-19.88,8.38
		c-5.73,5.59-8.59,12.04-8.59,19.36c0,7.94,2.83,14.77,8.49,20.5c5.66,5.73,12.39,8.59,20.19,8.59c7.94,0,14.72-2.79,20.34-8.38
		C74.78,64.55,77.59,57.79,77.59,49.85z"/>
	<path class="st0" d="M141.04,7.3v17.6c4-7.04,7.92-12.13,11.75-15.27c3.83-3.14,8.81-4.71,14.96-4.71c1.72,0,4.21,0.41,7.45,1.24
		l-5.49,18.01c-3.45-0.69-5.73-1.04-6.83-1.04c-6.07,0-11.16,2.12-15.27,6.37c-4.11,4.24-6.16,9.54-6.16,15.89v47.31h-18.01V7.3
		H141.04z"/>
	<path class="st0" d="M276.86,53.47h-72.88c1.59,8.76,5.19,15.17,10.82,19.2c5.62,4.04,11.75,6.06,18.37,6.06
		c10.21,0,18.77-4.24,25.67-12.73l13.15,9.94c-9.87,12.77-23.08,19.15-39.65,19.15c-12.7,0-23.33-4.35-31.88-13.04
		c-8.56-8.7-12.84-19.5-12.84-32.4c0-12.08,4.33-22.55,12.99-31.42c8.66-8.87,19.24-13.3,31.73-13.3c12.28,0,22.81,4.5,31.57,13.51
		C272.68,27.44,276.99,39.12,276.86,53.47z M205.84,39.08h52.17c-5.8-11.73-14.35-17.6-25.67-17.6
		C219.99,21.49,211.16,27.35,205.84,39.08z"/>
	<path class="st0" d="M368.67,7.3h17.6v81.98c0,12.08-4.16,22.34-12.47,30.8c-8.32,8.45-18.37,12.68-30.17,12.68
		c-8.97,0-17.22-2.43-24.74-7.3c-7.52-4.87-13.04-12.27-16.56-22.2h18.63c5.59,9.25,13.35,13.87,23.29,13.87
		c6.76,0,12.53-2.43,17.29-7.3s7.14-10.71,7.14-17.55V76.14c-8.7,12.63-19.67,18.94-32.92,18.94c-10.9,0-20.41-4.5-28.52-13.51
		c-8.11-9.01-12.16-19.65-12.16-31.93c0-12.28,3.95-22.81,11.85-31.57c7.9-8.76,17.3-13.15,28.21-13.15
		c14.08,0,25.26,6.8,33.54,20.39V7.3z M371.16,49.85c0-8-2.78-14.7-8.33-20.08c-5.56-5.38-12.44-8.07-20.65-8.07
		c-7.52,0-14.15,2.79-19.88,8.38c-5.73,5.59-8.59,12.04-8.59,19.36c0,7.94,2.83,14.77,8.49,20.5c5.66,5.73,12.39,8.59,20.19,8.59
		c7.94,0,14.72-2.79,20.34-8.38C368.35,64.55,371.16,57.79,371.16,49.85z"/>
	<path class="st1" d="M466.08,17.45l-12.01,10.56c-3.11-2.21-5.8-3.88-8.07-5.02s-4.97-1.71-8.07-1.71
		c-7.32,0-10.97,2.69-10.97,8.07c0,3.87,4.64,7.62,13.92,11.26c9.28,3.64,15.96,7.63,20.03,11.98c4.07,4.34,6.11,9.58,6.11,15.72
		c0,7.17-2.93,13.43-8.8,18.77c-5.87,5.34-12.77,8.01-20.7,8.01c-12.08,0-21.98-5.59-29.71-16.77l14.18-6.83
		c4.97,4.83,10.14,7.25,15.53,7.25c3.73,0,6.99-1.02,9.78-3.05c2.79-2.03,4.19-4.4,4.19-7.09c0-4.76-4.9-9.04-14.7-12.85
		c-9.8-3.8-16.58-7.65-20.34-11.55c-3.76-3.9-5.64-8.71-5.64-14.43c0-7.1,2.67-13.02,8.02-17.74c5.35-4.72,12.06-7.09,20.13-7.09
		S456.08,9.1,466.08,17.45z"/>
	<path class="st1" d="M570.43,53.47h-72.88c1.59,8.76,5.19,15.17,10.82,19.2c5.62,4.04,11.75,6.06,18.37,6.06
		c10.21,0,18.77-4.24,25.67-12.73l13.15,9.94c-9.87,12.77-23.08,19.15-39.65,19.15c-12.7,0-23.33-4.35-31.88-13.04
		c-8.56-8.7-12.84-19.5-12.84-32.4c0-12.08,4.33-22.55,12.99-31.42c8.66-8.87,19.24-13.3,31.73-13.3c12.28,0,22.81,4.5,31.57,13.51
		C566.25,27.44,570.56,39.12,570.43,53.47z M499.42,39.08h52.17c-5.8-11.73-14.35-17.6-25.67-17.6
		C513.56,21.49,504.73,27.35,499.42,39.08z"/>
	<path class="st1" d="M587.82,92.71V7.3h17.6v14.18c5.18-5.73,9.87-9.92,14.08-12.58c4.21-2.66,8.9-3.99,14.08-3.99
		c7.73,0,14.34,2.55,19.82,7.66c5.49,5.11,8.23,11.25,8.23,18.43v61.7h-18.01V36.29c0-4.62-1.5-8.45-4.5-11.49
		c-3-3.04-6.82-4.55-11.44-4.55c-6,0-11.18,2.54-15.53,7.61s-6.52,11.2-6.52,18.37v46.48H587.82z"/>
	<path class="st1" d="M680.67,92.71V7.3h17.6v14.18c5.18-5.73,9.87-9.92,14.08-12.58c4.21-2.66,8.9-3.99,14.08-3.99
		c7.73,0,14.34,2.55,19.82,7.66c5.49,5.11,8.23,11.25,8.23,18.43v61.7h-18.01V36.29c0-4.62-1.5-8.45-4.5-11.49
		c-3-3.04-6.82-4.55-11.44-4.55c-6,0-11.18,2.54-15.53,7.61s-6.52,11.2-6.52,18.37v46.48H680.67z"/>
	<path class="st1" d="M862.13,53.47h-72.88c1.59,8.76,5.19,15.17,10.82,19.2c5.62,4.04,11.75,6.06,18.37,6.06
		c10.21,0,18.77-4.24,25.67-12.73l13.15,9.94c-9.87,12.77-23.08,19.15-39.65,19.15c-12.7,0-23.33-4.35-31.88-13.04
		c-8.56-8.7-12.84-19.5-12.84-32.4c0-12.08,4.33-22.55,12.99-31.42c8.66-8.87,19.24-13.3,31.73-13.3c12.28,0,22.81,4.5,31.57,13.51
		C857.96,27.44,862.27,39.12,862.13,53.47z M791.12,39.08h52.17c-5.8-11.73-14.35-17.6-25.67-17.6
		C805.27,21.49,796.44,27.35,791.12,39.08z"/>
</g>
</svg>
