<?xml version="1.0" encoding="UTF-8" standalone="no"?>
<!-- Created with Inkscape (http://www.inkscape.org/) -->

<svg
   version="1.1"
   id="svg2"
   width="556.10669"
   height="364.88"
   viewBox="0 0 556.10669 364.88"
   sodipodi:docname="Sinclair-College-Vertical-Print-CMYK.eps"
   xmlns:inkscape="http://www.inkscape.org/namespaces/inkscape"
   xmlns:sodipodi="http://sodipodi.sourceforge.net/DTD/sodipodi-0.dtd"
   xmlns="http://www.w3.org/2000/svg"
   xmlns:svg="http://www.w3.org/2000/svg">
  <defs
     id="defs6" />
  <sodipodi:namedview
     id="namedview4"
     pagecolor="#ffffff"
     bordercolor="#000000"
     borderopacity="0.25"
     inkscape:showpageshadow="2"
     inkscape:pageopacity="0.0"
     inkscape:pagecheckerboard="0"
     inkscape:deskcolor="#d1d1d1" />
  <g
     id="g8"
     inkscape:groupmode="layer"
     inkscape:label="ink_ext_XXXXXX"
     transform="matrix(1.3333333,0,0,-1.3333333,0,364.88)">
    <g
       id="g10"
       transform="scale(0.1)">
      <path
         d="m 273.242,796.328 c 127.574,-31.027 193.946,-76.719 193.946,-177.578 0,-113.77 -88.786,-180.988 -215.493,-180.988 -92.23,0 -179.2927,31.867 -251.695,96.519 l 63.7852,75.86 c 57.7538,-50 115.4998,-78.442 190.4958,-78.442 65.508,0 106.879,30.18 106.879,76.723 0,43.969 -24.129,67.226 -136.183,93.09 C 96.5391,732.539 24.1367,770.469 24.1367,882.52 c 0,105.16 86.1953,175.84 206.0083,175.84 87.921,0 157.742,-26.72 218.941,-75.86 l -56.891,-80.148 c -54.304,40.5 -108.605,62.066 -163.773,62.066 -62.067,0 -98.266,-31.898 -98.266,-72.406 0,-47.422 27.582,-68.102 143.086,-95.684"
         style="fill:#231f20;fill-opacity:1;fill-rule:nonzero;stroke:none"
         id="path12" />
      <path
         d="M 704.188,1049.75 V 446.371 h -106.02 v 603.379 h 106.02"
         style="fill:#231f20;fill-opacity:1;fill-rule:nonzero;stroke:none"
         id="path14" />
      <path
         d="m 1286.85,1049.75 h 104.3 V 446.371 h -88.78 L 969.645,875.629 V 446.371 H 865.348 v 603.379 h 98.261 L 1286.85,632.559 v 417.191"
         style="fill:#231f20;fill-opacity:1;fill-rule:nonzero;stroke:none"
         id="path16" />
      <path
         d="m 1826.38,436.02 c -175.84,0 -306.85,137.05 -306.85,311.171 0,172.399 128.42,312.889 311.17,312.889 111.19,0 178.43,-38.79 236.17,-93.939 l -68.1,-78.442 c -48.27,44.821 -99.98,74.981 -168.94,74.981 -115.5,0 -199.11,-94.809 -199.11,-213.77 0,-118.949 83.61,-215.488 199.11,-215.488 74.13,0 121.54,30.18 173.26,78.437 l 68.1,-68.949 C 2008.26,477.41 1939.3,436.02 1826.38,436.02"
         style="fill:#231f20;fill-opacity:1;fill-rule:nonzero;stroke:none"
         id="path18" />
      <path
         d="m 2179.75,1049.75 h 106.01 V 542.91 h 317.21 v -96.539 h -423.22 v 603.379"
         style="fill:#231f20;fill-opacity:1;fill-rule:nonzero;stroke:none"
         id="path20" />
      <path
         d="M 2974.43,927.352 2871,686 h 207.73 z m 316.35,-480.981 h -112.07 l -61.19,145.66 h -285.31 l -62.07,-145.66 h -108.6 l 265.49,607.699 h 98.26 l 265.49,-607.699"
         style="fill:#231f20;fill-opacity:1;fill-rule:nonzero;stroke:none"
         id="path22" />
      <path
         d="M 3523.46,1049.75 V 446.371 h -106.02 v 603.379 h 106.02"
         style="fill:#231f20;fill-opacity:1;fill-rule:nonzero;stroke:none"
         id="path24" />
      <path
         d="M 3919.06,953.211 H 3764.79 V 750.648 h 155.13 c 75.86,0 124.14,39.653 124.14,101.704 0,66.378 -46.56,100.859 -125,100.859 z M 4045.78,446.371 3897.52,656.68 H 3764.79 V 446.371 h -106.04 v 603.379 h 268.95 c 138.76,0 224.1,-73.262 224.1,-191.371 0,-99.981 -59.48,-160.309 -143.95,-183.59 l 162.91,-228.418 h -124.98"
         style="fill:#231f20;fill-opacity:1;fill-rule:nonzero;stroke:none"
         id="path26" />
      <path
         d="m 2084.11,1297.03 c 397.45,0 719.74,322.27 719.74,719.79 0,397.51 -322.29,719.76 -719.74,719.76 -397.5,0 -719.73,-322.25 -719.73,-719.76 0,-397.52 322.23,-719.79 719.73,-719.79"
         style="fill:#c4122e;fill-opacity:1;fill-rule:nonzero;stroke:none"
         id="path28" />
      <path
         d="m 2384.02,2547.54 c -266.03,147.59 -500.05,-11.36 -580.52,-130.73 -79.55,-117.98 -147.89,-435.59 134.84,-620.33 l 124.5,209.78 c -121.96,95.27 -99.09,221.21 -38.67,289.97 58.43,66.47 144.33,81.22 235.24,39.25 l 124.61,212.06"
         style="fill:#ffffff;fill-opacity:1;fill-rule:nonzero;stroke:none"
         id="path30" />
      <path
         d="m 2226.88,2275.39 c 258.32,-160.62 233.43,-442.43 168.26,-570.77 -64.4,-126.97 -308.59,-341.18 -607.57,-184.05 l 122.66,210.85 c 142.59,-60.18 241.49,21.11 272.15,107.32 29.63,83.42 0.76,165.6 -80.13,224.62 l 124.63,212.03"
         style="fill:#ffffff;fill-opacity:1;fill-rule:nonzero;stroke:none"
         id="path32" />
      <path
         d="m 778.184,0 c -88.86,0 -154.395,69.9414 -154.395,158.789 0,88.012 65.102,159.711 155.731,159.711 55.851,0 89.312,-19.828 120.085,-48.852 l -23.75,-25.527 c -25.96,24.649 -54.996,42.25 -96.773,42.25 -68.223,0 -119.234,-54.98 -119.234,-126.68 0,-71.7027 51.48,-127.5816 119.234,-127.5816 42.227,0 69.945,16.25 99.418,44.4219 L 901.367,54.1016 C 869.27,21.5703 834.047,0 778.184,0"
         style="fill:#231f20;fill-opacity:1;fill-rule:nonzero;stroke:none"
         id="path34" />
      <path
         d="m 1231.83,286.371 c -70.37,0 -120.5,-56.312 -120.5,-126.68 0,-70.4097 51.01,-127.5816 121.4,-127.5816 70.38,0 120.52,56.289 120.52,126.6796 0,70.371 -51,127.582 -121.42,127.582 z M 1231.83,0 c -93.67,0 -156.61,73.4609 -156.61,158.789 0,85.332 63.79,159.711 157.51,159.711 93.71,0 156.59,-73.48 156.59,-158.809 C 1389.32,74.3398 1325.54,0 1231.83,0"
         style="fill:#231f20;fill-opacity:1;fill-rule:nonzero;stroke:none"
         id="path36" />
      <path
         d="m 1598.41,313.211 h 34.77 V 37.3906 h 173.34 V 5.28125 H 1598.41 V 313.211"
         style="fill:#231f20;fill-opacity:1;fill-rule:nonzero;stroke:none"
         id="path38" />
      <path
         d="m 2006.34,313.211 h 34.75 V 37.3906 h 173.32 V 5.28125 H 2006.34 V 313.211"
         style="fill:#231f20;fill-opacity:1;fill-rule:nonzero;stroke:none"
         id="path40" />
      <path
         d="M 2636.84,281.512 H 2449 V 176.391 h 168.03 v -31.68 H 2449 V 36.9414 h 190.04 V 5.28125 H 2414.2 V 313.211 h 222.64 v -31.699"
         style="fill:#231f20;fill-opacity:1;fill-rule:nonzero;stroke:none"
         id="path42" />
      <path
         d="m 2987.56,0 c -96.78,0 -156.62,70.3711 -156.62,158.789 0,84.902 62.01,159.711 154.41,159.711 51.9,0 84.03,-14.98 114.79,-40.941 l -22.43,-26.387 c -23.75,20.687 -50.15,35.199 -93.67,35.199 -68.2,0 -117.01,-57.621 -117.01,-126.68 0,-73.9097 47.03,-128.4605 121.86,-128.4605 35.15,0 67.73,13.6406 88.82,30.7695 v 76.578 h -93.67 v 31.211 h 127.13 V 47.0703 C 3082.56,21.5703 3039.47,0 2987.56,0"
         style="fill:#231f20;fill-opacity:1;fill-rule:nonzero;stroke:none"
         id="path44" />
      <path
         d="M 3547.68,281.512 H 3359.86 V 176.391 h 167.99 v -31.68 H 3359.86 V 36.9414 h 189.98 V 5.28125 H 3325.06 V 313.211 h 222.62 v -31.699"
         style="fill:#231f20;fill-opacity:1;fill-rule:nonzero;stroke:none"
         id="path46" />
    </g>
  </g>
</svg>
